<svg width="965" height="410" viewBox="0 0 965 410" fill="none" xmlns="http://www.w3.org/2000/svg">
<path d="M964.048 2.54565H357.972V103.558H964.048V2.54565Z" fill="#009BDE"/>
<path d="M78.9785 2.54565H2.01646V103.558H78.9785V2.54565Z" fill="#919093"/>
<path d="M314.678 2.54565H122.273V103.558H314.678V2.54565Z" fill="#3F9C35"/>
<path d="M524.561 254.629C524.561 230.899 516.544 211.658 501.151 199.473C485.438 186.966 467.16 183.92 440.063 183.92H357.81V403.262H402.383V223.523H441.666C452.729 223.523 460.907 224.966 466.198 228.173C474.054 232.823 478.704 241.321 478.704 254.789C478.704 277.717 464.594 285.734 446.156 285.734H416.493V325.498H434.291L480.788 403.582H532.417L480.788 318.122C510.772 309.144 524.561 284.131 524.561 254.629Z" fill="#63666A"/>
<path d="M659.882 279.146C628.295 268.243 592.54 266.96 592.54 242.91C592.54 227.517 606.649 220.302 626.692 220.302C646.413 220.302 663.89 222.066 693.552 229.922V190.159C668.059 182.943 649.62 180.378 625.569 180.378C582.118 180.378 545.4 197.694 545.4 241.787C545.4 276.58 562.717 294.218 597.029 305.922C627.493 316.344 661.966 318.429 661.966 341.998C661.966 359.635 644.81 367.011 620.118 367.011C596.067 367.011 580.995 365.087 550.371 356.91V396.834C576.025 404.53 597.51 406.614 622.523 406.614C677.038 406.614 708.945 382.884 708.945 338.791C708.784 303.838 686.017 288.125 659.882 279.146Z" fill="#63666A"/>
<path d="M905.679 183.92L827.434 403.422H869.923L919.628 263.928H920.269V403.422H964.042V183.92H905.679Z" fill="#63666A"/>
<path d="M842.669 320.527L791.521 183.92H732.356V403.262H775.648V263.928H776.289L820.542 382.257L842.669 320.527Z" fill="#63666A"/>
<path d="M964.048 2.54565H357.972V103.558H964.048V2.54565Z" fill="#009BDE"/>
<path d="M78.9785 2.54565H2.01646V103.558H78.9785V2.54565Z" fill="#919093"/>
<path d="M314.678 2.54565H122.273V103.558H314.678V2.54565Z" fill="#3F9C35"/>
<path d="M524.561 254.629C524.561 230.899 516.544 211.658 501.151 199.473C485.438 186.966 467.16 183.92 440.063 183.92H357.81V403.262H402.383V223.523H441.666C452.729 223.523 460.907 224.966 466.198 228.173C474.054 232.823 478.704 241.321 478.704 254.789C478.704 277.717 464.594 285.734 446.156 285.734H416.493V325.498H434.291L480.788 403.582H532.417L480.788 318.122C510.772 309.144 524.561 284.131 524.561 254.629Z" fill="#63666A"/>
<path d="M659.882 279.146C628.295 268.243 592.54 266.96 592.54 242.91C592.54 227.517 606.649 220.302 626.692 220.302C646.413 220.302 663.89 222.066 693.552 229.922V190.159C668.059 182.943 649.62 180.378 625.569 180.378C582.118 180.378 545.4 197.694 545.4 241.787C545.4 276.58 562.717 294.218 597.029 305.922C627.493 316.344 661.966 318.429 661.966 341.998C661.966 359.635 644.81 367.011 620.118 367.011C596.067 367.011 580.995 365.087 550.371 356.91V396.834C576.025 404.53 597.51 406.614 622.523 406.614C677.038 406.614 708.945 382.884 708.945 338.791C708.784 303.838 686.017 288.125 659.882 279.146Z" fill="#63666A"/>
<path d="M905.679 183.92L827.434 403.422H869.923L919.628 263.928H920.269V403.422H964.042V183.92H905.679Z" fill="#63666A"/>
<path d="M842.669 320.527L791.521 183.92H732.356V403.262H775.648V263.928H776.289L820.542 382.257L842.669 320.527Z" fill="#63666A"/>
</svg>
