<?xml version="1.0" standalone="no"?>
<!DOCTYPE svg PUBLIC "-//W3C//DTD SVG 1.1//EN" "http://www.w3.org/Graphics/SVG/1.1/DTD/svg11.dtd">
<svg xmlns="http://www.w3.org/2000/svg" width="188" height="79" viewBox="0 0 188 79" fill="none">
<g clip-path="url(#clip0_24_884)">
<path d="M186.846 0.0310059H69.7682V19.6629H186.846V0.0310059Z" fill="#009CDE"/>
<path d="M15.8758 0.0310059H1.00879V19.6629H15.8758V0.0310059Z" fill="#888B8D"/>
<path d="M61.4061 0.0310059H24.2385V19.6629H61.4061V0.0310059Z" fill="#3F9C35"/>
<path d="M101.95 49.0167C101.95 44.4048 100.401 40.6654 97.4279 38.2971C94.3925 35.8665 90.8616 35.2744 85.6272 35.2744H69.738V77.9036H78.3485V42.9713H85.9369C88.074 42.9713 89.6537 43.2518 90.6758 43.875C92.1934 44.7787 93.0917 46.4303 93.0917 49.0479C93.0917 53.504 90.366 55.0621 86.8041 55.0621H81.0741V62.7902H84.5121L93.4943 77.9659H103.468L93.4943 61.3567C99.2863 59.6117 101.95 54.7504 101.95 49.0167Z" fill="white"/>
<path d="M128.092 53.7847C121.99 51.6657 115.083 51.4164 115.083 46.7422C115.083 43.7506 117.809 42.3484 121.681 42.3484C125.49 42.3484 128.866 42.6911 134.596 44.2181V36.49C129.672 35.0877 126.11 34.5891 121.464 34.5891C113.07 34.5891 105.977 37.9546 105.977 46.524C105.977 53.2861 109.323 56.7139 115.951 58.9887C121.836 61.0142 128.495 61.4193 128.495 66.0001C128.495 69.4279 125.181 70.8613 120.411 70.8613C115.765 70.8613 112.853 70.4874 106.938 68.8981V76.6574C111.893 78.1531 116.044 78.5582 120.875 78.5582C131.406 78.5582 137.57 73.9463 137.57 65.3768C137.539 58.5836 133.141 55.5298 128.092 53.7847Z" fill="white"/>
<path d="M175.572 35.2744L160.457 77.9347H168.665L178.267 50.8241H178.391V77.9347H186.846V35.2744H175.572Z" fill="white"/>
<path d="M163.4 61.8242L153.52 35.2744H142.091V77.9036H150.453V50.8241H150.577L159.126 73.8214L163.4 61.8242Z" fill="white"/>
</g>
<defs>
<clipPath id="clip0_24_884">
<rect width="186.148" height="78.839" fill="white" transform="translate(0.884644)"/>
</clipPath>
</defs>
</svg>